PathFileType	4	(X/Y/Z)	./resultDataOpenSim/trcMotMarkerGrf/sub10/qtm-12-04.trc
DataRate	CameraRate	NumFrames	NumMarkers	Units	OrigDataRate	OrigDataStartFrame	OrigNumFrames
250.000000	250.000000	7	24	m	250.000000	120	478
Frame#	Time	L.Toe.Tip			R.Toe.Tip			L.Ankle.Lat			R.Ankle.Lat			L.Ankle.Med			R.Ankle.Med			L.Heel			R.Heel			L.Knee.Lat			R.Knee.Lat			L.Knee.Med			R.Knee.Med			L.Thigh.Upper			R.Thigh.Upper			L.ASIS			R.ASIS			V.Sacral			L.Acromium			R.Acromium			C7			L.Elbow			R.Elbow			L.Wrist.Lat			R.Wrist.Lat
		X1	Y1	Z1	X2	Y2	Z2	X3	Y3	Z3	X4	Y4	Z4	X5	Y5	Z5	X6	Y6	Z6	X7	Y7	Z7	X8	Y8	Z8	X9	Y9	Z9	X10	Y10	Z10	X11	Y11	Z11	X12	Y12	Z12	X13	Y13	Z13	X14	Y14	Z14	X15	Y15	Z15	X16	Y16	Z16	X17	Y17	Z17	X18	Y18	Z18	X19	Y19	Z19	X20	Y20	Z20	X21	Y21	Z21	X22	Y22	Z22	X23	Y23	Z23	X24	Y24	Z24

120	0.476	-0.28983147	0.092066039	-0.16936249	-0.77211468	0.038708491	-0.040635728	-0.42444597	0.0761647	-0.18145951	-0.90975311	0.056169653	-0.008581252	-0.41024753	0.10817152	-0.1003063	-0.89193002	0.083676316	-0.092967191	-0.46855117	0.029732054	-0.12565048	-0.9636059	0.033586714	-0.059045873	-0.4982405	0.45455408	-0.21923982	-0.79885386	0.44594664	0.045080988	-0.47535101	0.44401795	-0.10115885	-0.78909299	0.44755804	-0.086413516	-0.62861192	0.8249288	-0.27770555	-0.71794522	0.8497979	0.098818391	-0.59208628	0.93480544	-0.20159921	-0.62401481	0.93973476	0.038731115	-0.80762388	0.94564854	-0.11788812	-0.68558187	1.4094368	-0.24293494	-0.69332015	1.3945549	0.085324781	-0.77764024	1.4284148	-0.081456455	-0.79482026	1.0832967	-0.29900751	-0.66517536	1.0371729	0.14246962	-0.69179002	0.86346413	-0.3263339	-0.45050018	0.91582659	0.11887369
121	0.48	-0.27373528	0.096137579	-0.16803916	-0.77206632	0.038681608	-0.040625109	-0.40794991	0.076528922	-0.1809406	-0.90963738	0.056341473	-0.0087579824	-0.39475578	0.1091357	-0.099942917	-0.89165258	0.083653416	-0.093212403	-0.45076044	0.02884854	-0.12499527	-0.96355533	0.033851805	-0.059318612	-0.49193396	0.45272694	-0.21907194	-0.79544783	0.44514071	0.044711879	-0.46934725	0.44245987	-0.10074797	-0.78514589	0.44685647	-0.086644173	-0.6222675	0.82365501	-0.27744403	-0.71319612	0.84867441	0.098739435	-0.58571489	0.93353498	-0.20121403	-0.61903369	0.93852408	0.039098317	-0.80139788	0.94406486	-0.11826821	-0.67956433	1.4079728	-0.24253679	-0.68760235	1.3932128	0.085658449	-0.77177586	1.4270655	-0.081184454	-0.78991171	1.0824879	-0.298214	-0.65711735	1.0357312	0.1426221	-0.68901503	0.86191124	-0.32659745	-0.44122782	0.91700037	0.11724905
122	0.484	-0.2581157	0.10030721	-0.16676645	-0.77201188	0.038651112	-0.040604012	-0.39184533	0.077068842	-0.18057182	-0.9095337	0.056525382	-0.008938275	-0.37979714	0.11007954	-0.09963556	-0.8914229	0.08361443	-0.093443697	-0.43347441	0.028242778	-0.12461714	-0.96349939	0.034142257	-0.059578216	-0.4855852	0.45109404	-0.21893375	-0.79208402	0.4442624	0.044339716	-0.46332318	0.440888	-0.10025811	-0.78111989	0.44607526	-0.086880936	-0.61584344	0.82230056	-0.27713409	-0.70842076	0.84752492	0.098664415	-0.5792788	0.93223104	-0.20079898	-0.61404574	0.93727406	0.03944221	-0.79506304	0.94239681	-0.11869627	-0.6735332	1.4064778	-0.24214952	-0.68188849	1.3918417	0.085976855	-0.76589431	1.4256623	-0.080882406	-0.78540108	1.0816754	-0.29789686	-0.64904554	1.034298	0.14265133	-0.686213	0.86035054	-0.32683313	-0.43206316	0.91814304	0.11563049
123	0.488	-0.24299734	0.10452597	-0.16551046	-0.77195689	0.038618444	-0.040576638	-0.37611328	0.077805672	-0.18033482	-0.90943839	0.056733625	-0.0091191085	-0.36540459	0.11099079	-0.0994223	-0.89124757	0.083564505	-0.093660893	-0.41672037	0.027858681	-0.12457894	-0.96344131	0.034465795	-0.059814849	-0.47905816	0.44958229	-0.21881571	-0.78870709	0.44335268	0.043945054	-0.45730689	0.43930003	-0.09969296	-0.77707511	0.44522019	-0.087140366	-0.60923814	0.82087934	-0.27675167	-0.7036029	0.84635035	0.098578848	-0.57277096	0.93090349	-0.20035999	-0.60905207	0.93599639	0.039764216	-0.78869136	0.94070091	-0.11914384	-0.66748866	1.404941	-0.24177204	-0.67618153	1.3904398	0.086279796	-0.7600013	1.4241984	-0.080565423	-0.78101361	1.0808592	-0.29777521	-0.64101888	1.0328622	0.14263795	-0.68337483	0.85878115	-0.32704392	-0.423007	0.91924673	0.11401101
124	0.492	-0.2284116	0.10872924	-0.16425224	-0.77190322	0.038583714	-0.040546548	-0.36074767	0.078752758	-0.18021902	-0.90934084	0.056974673	-0.0092980213	-0.35154095	0.1118934	-0.099309608	-0.89107835	0.083529521	-0.09386703	-0.40053198	0.027653565	-0.1248929	-0.96337825	0.034836682	-0.060028596	-0.47234725	0.44799937	-0.2186552	-0.78524692	0.44244371	0.04350263	-0.45132622	0.4376945	-0.099065158	-0.77300238	0.44429515	-0.087414942	-0.60256546	0.8193795	-0.27634857	-0.69874357	0.84515376	0.098482983	-0.56622377	0.92955648	-0.19991496	-0.60404321	0.93469277	0.040064481	-0.7823629	0.93906198	-0.11957275	-0.66143499	1.4033593	-0.2413967	-0.67046812	1.3890052	0.086566606	-0.75413263	1.4226839	-0.080359456	-0.77631397	1.0800154	-0.29742245	-0.63305584	1.0314287	0.14259828	-0.6804882	0.8572061	-0.32723256	-0.41404143	0.92031353	0.11238629
125	0.496	-0.21438515	0.11283708	-0.16299788	-0.77184864	0.03854735	-0.04051681	-0.34580765	0.079863065	-0.18021721	-0.90922668	0.057246757	-0.0094714307	-0.33818574	0.11279581	-0.099293081	-0.89083765	0.08353907	-0.094065247	-0.38494119	0.027595261	-0.12551436	-0.96330595	0.035264405	-0.060233016	-0.46540767	0.44626761	-0.21845675	-0.78166705	0.44153661	0.043022886	-0.44538914	0.43607598	-0.098390941	-0.76886181	0.44331214	-0.087699596	-0.59596368	0.81778657	-0.27598154	-0.69384882	0.84394445	0.098378519	-0.559681	0.92818066	-0.199475	-0.59899148	0.93337001	0.04032807	-0.77610929	0.93752723	-0.11998405	-0.65536879	1.4017414	-0.24102767	-0.66473777	1.3875389	0.086835547	-0.74837138	1.42114	-0.08051991	-0.7712158	1.0791083	-0.2967353	-0.62516146	1.0300053	0.1425291	-0.67754244	0.85562751	-0.3274005	-0.40514178	0.9213484	0.11076152
126	0.5	-0.20092389	0.11676482	-0.16176672	-0.77178752	0.038511432	-0.040492656	-0.33140079	0.081043765	-0.180309	-0.90907995	0.057540175	-0.0096423317	-0.32541467	0.1136487	-0.099400347	-0.89049135	0.083603125	-0.094261408	-0.36998211	0.027653112	-0.1263585	-0.96322493	0.035745291	-0.060443958	-0.45828153	0.44447871	-0.21826137	-0.77796925	0.44061608	0.042529931	-0.4394796	0.43444527	-0.097690633	-0.76462707	0.44228947	-0.088000899	-0.58941601	0.81610663	-0.27565209	-0.68891816	0.84272653	0.098266663	-0.5531538	0.92676046	-0.19903566	-0.59383491	0.93204612	0.040502582	-0.7699425	0.93607968	-0.12044042	-0.6492745	1.4000957	-0.2406826	-0.65899025	1.3860432	0.087084796	-0.74277967	1.4195816	-0.081218648	-0.76606383	1.0781266	-0.29599852	-0.61730969	1.028576	0.1424048	-0.67453035	0.85404682	-0.32755234	-0.39630281	0.92234902	0.10914322
